<svg width="174" height="30" viewBox="0 0 174 30" fill="none" xmlns="http://www.w3.org/2000/svg">
<g clip-path="url(#clip0_1_2)">
<mask id="mask0_1_2" style="mask-type:luminance" maskUnits="userSpaceOnUse" x="0" y="0" width="30" height="30">
<path d="M30 0H0V30H30V0Z" fill="white"/>
</mask>
<g mask="url(#mask0_1_2)">
<path d="M15 22.825L7.12963 27.2305C6.75733 27.4389 6.31185 27.1153 6.39499 26.6968L8.15253 17.85L1.52968 11.726C1.21641 11.4363 1.38655 10.9126 1.81025 10.8623L10.7675 9.79999L14.546 1.60919C14.7247 1.22178 15.2753 1.22178 15.454 1.60919L19.2325 9.79999L28.1898 10.8623C28.6135 10.9126 28.7836 11.4363 28.4704 11.726L21.8475 17.85L23.6051 26.6968C23.6882 27.1153 23.2427 27.4389 22.8704 27.2305L15 22.825Z" fill="#52B480"/>
</g>
<mask id="mask1_1_2" style="mask-type:luminance" maskUnits="userSpaceOnUse" x="36" y="0" width="30" height="30">
<path d="M66 0H36V30H66V0Z" fill="white"/>
</mask>
<g mask="url(#mask1_1_2)">
<path d="M51 22.825L43.1296 27.2305C42.7573 27.4389 42.3118 27.1153 42.395 26.6968L44.1525 17.85L37.5297 11.726C37.2164 11.4363 37.3865 10.9126 37.8102 10.8623L46.7675 9.79999L50.546 1.60919C50.7247 1.22178 51.2753 1.22178 51.454 1.60919L55.2325 9.79999L64.1898 10.8623C64.6135 10.9126 64.7836 11.4363 64.4704 11.726L57.8475 17.85L59.6051 26.6968C59.6882 27.1153 59.2427 27.4389 58.8704 27.2305L51 22.825Z" fill="#52B480"/>
</g>
<mask id="mask2_1_2" style="mask-type:luminance" maskUnits="userSpaceOnUse" x="72" y="0" width="30" height="30">
<path d="M102 0H72V30H102V0Z" fill="white"/>
</mask>
<g mask="url(#mask2_1_2)">
<path d="M87.2663 23.2L79.3959 27.6055C79.0236 27.8139 78.5781 27.4903 78.6612 27.0718L80.4188 18.225L73.7959 12.101C73.4826 11.8113 73.6528 11.2876 74.0765 11.2373L83.0338 10.175L86.8122 1.98419C86.9909 1.59678 87.5416 1.59678 87.7203 1.98419L91.4988 10.175L100.456 11.2373C100.88 11.2876 101.05 11.8113 100.737 12.101L94.1138 18.225L95.8713 27.0718C95.9544 27.4903 95.5089 27.8139 95.1367 27.6055L87.2663 23.2Z" fill="#52B480"/>
</g>
<mask id="mask3_1_2" style="mask-type:luminance" maskUnits="userSpaceOnUse" x="108" y="0" width="30" height="30">
<path d="M138 0H108V30H138V0Z" fill="white"/>
</mask>
<g mask="url(#mask3_1_2)">
<path d="M123 22.825L115.13 27.2305C114.757 27.4389 114.312 27.1153 114.395 26.6968L116.153 17.85L109.53 11.726C109.216 11.4363 109.387 10.9126 109.81 10.8623L118.768 9.79999L122.546 1.60919C122.725 1.22178 123.275 1.22178 123.454 1.60919L127.233 9.79999L136.19 10.8623C136.613 10.9126 136.784 11.4363 136.47 11.726L129.848 17.85L131.605 26.6968C131.688 27.1153 131.243 27.4389 130.87 27.2305L123 22.825Z" fill="#52B480"/>
</g>
<mask id="mask4_1_2" style="mask-type:luminance" maskUnits="userSpaceOnUse" x="144" y="0" width="30" height="30">
<path d="M174 0H144V30H174V0Z" fill="white"/>
</mask>
<g mask="url(#mask4_1_2)">
<path d="M159 22.825L151.13 27.2305C150.757 27.4389 150.312 27.1153 150.395 26.6968L152.153 17.85L145.53 11.726C145.216 11.4363 145.387 10.9126 145.81 10.8623L154.768 9.79999L158.546 1.60919C158.725 1.22178 159.275 1.22178 159.454 1.60919L163.233 9.79999L172.19 10.8623C172.613 10.9126 172.784 11.4363 172.47 11.726L165.848 17.85L167.605 26.6968C167.688 27.1153 167.243 27.4389 166.87 27.2305L159 22.825Z" fill="#52B480"/>
</g>
</g>
<defs>
<clipPath id="clip0_1_2">
<rect width="174" height="30" fill="white"/>
</clipPath>
</defs>
</svg>
